<svg width="45" height="45" viewBox="0 0 45 45" fill="none" xmlns="http://www.w3.org/2000/svg">
<g opacity="0.77">
<path d="M22.5 37.6523C20.3923 37.6448 18.3241 37.08 16.505 36.0154C14.686 34.9507 13.1808 33.424 12.1421 31.59C11.1034 29.756 10.5681 27.68 10.5905 25.5724C10.6128 23.4648 11.1921 21.4006 12.2695 19.5891C12.1631 18.9784 12.109 18.3597 12.1078 17.7398C12.1078 14.9837 13.2027 12.3404 15.1516 10.3915C17.1005 8.44254 19.7438 7.34766 22.5 7.34766C25.2562 7.34766 27.8995 8.44254 29.8484 10.3915C31.7973 12.3404 32.8922 14.9837 32.8922 17.7398C32.891 18.3597 32.8369 18.9784 32.7305 19.5891C33.8079 21.4006 34.3872 23.4648 34.4095 25.5724C34.4319 27.68 33.8966 29.756 32.8579 31.59C31.8192 33.424 30.314 34.9507 28.495 36.0154C26.6759 37.08 24.6077 37.6448 22.5 37.6523ZM22.5 8.75391C21.164 8.75504 19.845 9.05385 18.6389 9.62861C17.4328 10.2034 16.3699 11.0397 15.5275 12.0767C14.6851 13.1137 14.0844 14.3253 13.7689 15.6236C13.4535 16.9219 13.4313 18.2741 13.7039 19.582C13.7402 19.7617 13.7048 19.9484 13.6055 20.1023C12.5895 21.6967 12.0208 23.5347 11.9588 25.4242C11.8968 27.3137 12.3438 29.1851 13.253 30.8426C14.1622 32.5001 15.5002 33.8827 17.127 34.8458C18.7538 35.8089 20.6095 36.317 22.5 36.317C24.3905 36.317 26.2462 35.8089 27.873 34.8458C29.4998 33.8827 30.8378 32.5001 31.747 30.8426C32.6562 29.1851 33.1032 27.3137 33.0412 25.4242C32.9792 23.5347 32.4105 21.6967 31.3945 20.1023C31.2952 19.9484 31.2598 19.7617 31.2961 19.582C31.5687 18.2741 31.5465 16.9219 31.2311 15.6236C30.9156 14.3253 30.3149 13.1137 29.4725 12.0767C28.6301 11.0397 27.5672 10.2034 26.3611 9.62861C25.155 9.05385 23.836 8.75504 22.5 8.75391ZM30.0727 18.1406C29.896 18.1419 29.7253 18.0767 29.5945 17.9578C27.6568 16.1855 25.126 15.2026 22.5 15.2026C19.874 15.2026 17.3432 16.1855 15.4055 17.9578C15.3031 18.053 15.1748 18.1156 15.0367 18.1375C14.8987 18.1594 14.7572 18.1396 14.6304 18.0808C14.5037 18.0219 14.3973 17.9266 14.325 17.807C14.2526 17.6874 14.2175 17.549 14.2242 17.4094C14.3123 15.2735 15.2227 13.2544 16.7651 11.7743C18.3075 10.2942 20.3623 9.46778 22.5 9.46778C24.6377 9.46778 26.6926 10.2942 28.2349 11.7743C29.7773 13.2544 30.6877 15.2735 30.7758 17.4094C30.7816 17.5486 30.746 17.6864 30.6734 17.8053C30.6008 17.9243 30.4945 18.0189 30.368 18.0773C30.2753 18.1196 30.1745 18.1412 30.0727 18.1406ZM22.5 13.7953C24.8468 13.792 27.142 14.4844 29.0953 15.7852C28.6752 14.3617 27.8059 13.1124 26.6171 12.2238C25.4284 11.3353 23.9841 10.8551 22.5 10.8551C21.0159 10.8551 19.5716 11.3353 18.3829 12.2238C17.1941 13.1124 16.3248 14.3617 15.9047 15.7852C17.8581 14.4844 20.1532 13.792 22.5 13.7953Z" fill="#231F20"/>
</g>
</svg>
