<svg width="43" height="45" viewBox="0 0 43 45" fill="none" xmlns="http://www.w3.org/2000/svg">
<path d="M34.0415 9.52933L33.9832 9.31412C33.1218 6.14889 31.0272 3.4511 28.159 1.8125C25.2908 0.173898 21.8831 -0.271711 18.6834 0.573414L10.0651 2.8607C6.86742 3.71342 4.142 5.78675 2.48662 8.6259C0.831244 11.4651 0.381072 14.8382 1.23485 18.0055L4.40867 29.723C5.16357 32.5292 6.77802 35.0352 9.0301 36.8963L10.3406 37.9834L10.6904 39.2746C11.1816 41.0837 12.3784 42.6256 14.0178 43.5615C15.6572 44.4974 17.6049 44.7506 19.4328 44.2655L34.9417 40.1494C36.7703 39.6641 38.3293 38.4796 39.2757 36.8565C40.222 35.2334 40.4782 33.3046 39.9879 31.4945L39.6918 30.4012L40.351 29.3359C41.3568 27.7 42.0177 25.8796 42.2939 23.9842C42.57 22.0889 42.4557 20.1578 41.9578 18.3073L40.9991 14.7678C40.5876 13.2556 39.6811 11.9212 38.4216 10.9735C37.1621 10.0257 35.6207 9.51812 34.0386 9.5301L34.0415 9.52933ZM34.02 36.7354L18.5083 40.8522C18.0556 40.9724 17.5835 41.0031 17.1189 40.9426C16.6543 40.8821 16.2062 40.7316 15.8004 40.4998C14.9807 40.0315 14.3825 39.26 14.1374 38.3552L36.5441 32.4085C36.6655 32.8566 36.6965 33.3241 36.6353 33.7841C36.5742 34.2441 36.422 34.6877 36.1877 35.0896C35.9533 35.4914 35.6412 35.8435 35.2693 36.1259C34.8973 36.4083 34.4728 36.6155 34.02 36.7354ZM38.514 19.2213C38.8868 20.6093 38.972 22.0576 38.7646 23.479C38.5571 24.9005 38.0613 26.2657 37.3068 27.4925L36.5269 28.7544L12.4693 35.1393L11.3213 34.1875C9.63143 32.79 8.42015 30.9089 7.85386 28.8025L6.28191 22.999C7.49184 23.3223 8.76668 23.323 9.97698 23.001L22.042 19.799C22.4991 19.6777 22.8888 19.3816 23.1253 18.9759C23.3618 18.5702 23.4259 18.0881 23.3033 17.6357C23.1808 17.1833 22.8817 16.7975 22.4718 16.5634C22.062 16.3293 21.575 16.2659 21.1179 16.3872L9.0543 19.5888C8.60147 19.7092 8.12912 19.7401 7.66424 19.6797C7.19935 19.6192 6.75106 19.4687 6.34496 19.2367C5.93887 19.0048 5.58295 18.6958 5.29754 18.3276C5.01213 17.9594 4.80283 17.5391 4.68159 17.0907C4.07166 14.8283 4.3932 12.4187 5.57568 10.3907C6.75816 8.36258 8.70502 6.88156 10.9892 6.2725L19.6075 3.98522C21.8931 3.38147 24.3273 3.69975 26.3762 4.87024C28.425 6.04074 29.9212 7.96786 30.5365 10.2289L30.5948 10.4441C29.2189 11.2171 28.1408 12.42 27.5292 13.8643C26.9176 15.3086 26.8072 16.9129 27.215 18.4261L28.6012 23.5438C28.7238 23.9962 29.0229 24.3819 29.4327 24.6161C29.8426 24.8502 30.3296 24.9136 30.7867 24.7923C31.2437 24.671 31.6334 24.3749 31.8699 23.9692C32.1065 23.5635 32.1705 23.0814 32.048 22.629L30.6618 17.5113C30.4166 16.6062 30.5447 15.6419 31.0179 14.8303C31.4911 14.0187 32.2706 13.4265 33.1849 13.1838C34.0992 12.9412 35.0735 13.068 35.8934 13.5364C36.7132 14.0048 37.3116 14.7763 37.5567 15.6814L38.514 19.2213Z" fill="white"/>
<path d="M34.0415 9.52933L33.9832 9.31412C33.1218 6.14889 31.0272 3.4511 28.159 1.8125C25.2908 0.173898 21.8831 -0.271711 18.6834 0.573414L10.0651 2.8607C6.86742 3.71342 4.142 5.78675 2.48662 8.6259C0.831244 11.4651 0.381072 14.8382 1.23485 18.0055L4.40867 29.723C5.16357 32.5292 6.77802 35.0352 9.0301 36.8963L10.3406 37.9834L10.6904 39.2746C11.1816 41.0837 12.3784 42.6256 14.0178 43.5615C15.6572 44.4974 17.6049 44.7506 19.4328 44.2655L34.9417 40.1494C36.7703 39.6641 38.3293 38.4796 39.2757 36.8565C40.222 35.2334 40.4782 33.3046 39.9879 31.4945L39.6918 30.4012L40.351 29.3359C41.3568 27.7 42.0177 25.8796 42.2939 23.9842C42.57 22.0889 42.4557 20.1578 41.9578 18.3073L40.9991 14.7678C40.5876 13.2556 39.6811 11.9212 38.4216 10.9735C37.1621 10.0257 35.6207 9.51812 34.0386 9.5301L34.0415 9.52933ZM34.02 36.7354L18.5083 40.8522C18.0556 40.9724 17.5835 41.0031 17.1189 40.9426C16.6543 40.8821 16.2062 40.7316 15.8004 40.4998C14.9807 40.0315 14.3825 39.26 14.1374 38.3552L36.5441 32.4085C36.6655 32.8566 36.6965 33.3241 36.6353 33.7841C36.5742 34.2441 36.422 34.6877 36.1877 35.0896C35.9533 35.4914 35.6412 35.8435 35.2693 36.1259C34.8973 36.4083 34.4728 36.6155 34.02 36.7354ZM38.514 19.2213C38.8868 20.6093 38.972 22.0576 38.7646 23.479C38.5571 24.9005 38.0613 26.2657 37.3068 27.4925L36.5269 28.7544L12.4693 35.1393L11.3213 34.1875C9.63143 32.79 8.42015 30.9089 7.85386 28.8025L6.28191 22.999C7.49184 23.3223 8.76668 23.323 9.97698 23.001L22.042 19.799C22.4991 19.6777 22.8888 19.3816 23.1253 18.9759C23.3618 18.5702 23.4259 18.0881 23.3033 17.6357C23.1808 17.1833 22.8817 16.7975 22.4718 16.5634C22.062 16.3293 21.575 16.2659 21.1179 16.3872L9.0543 19.5888C8.60147 19.7092 8.12912 19.7401 7.66424 19.6797C7.19935 19.6192 6.75106 19.4687 6.34496 19.2367C5.93887 19.0048 5.58295 18.6958 5.29754 18.3276C5.01213 17.9594 4.80283 17.5391 4.68159 17.0907C4.07166 14.8283 4.3932 12.4187 5.57568 10.3907C6.75816 8.36258 8.70502 6.88156 10.9892 6.2725L19.6075 3.98522C21.8931 3.38147 24.3273 3.69975 26.3762 4.87024C28.425 6.04074 29.9212 7.96786 30.5365 10.2289L30.5948 10.4441C29.2189 11.2171 28.1408 12.42 27.5292 13.8643C26.9176 15.3086 26.8072 16.9129 27.215 18.4261L28.6012 23.5438C28.7238 23.9962 29.0229 24.3819 29.4327 24.6161C29.8426 24.8502 30.3296 24.9136 30.7867 24.7923C31.2437 24.671 31.6334 24.3749 31.8699 23.9692C32.1065 23.5635 32.1705 23.0814 32.048 22.629L30.6618 17.5113C30.4166 16.6062 30.5447 15.6419 31.0179 14.8303C31.4911 14.0187 32.2706 13.4265 33.1849 13.1838C34.0992 12.9412 35.0735 13.068 35.8934 13.5364C36.7132 14.0048 37.3116 14.7763 37.5567 15.6814L38.514 19.2213Z" fill="#E84444"/>
</svg>
