<svg width="45" height="45" viewBox="0 0 45 45" fill="none" xmlns="http://www.w3.org/2000/svg">
<g opacity="0.77">
<path d="M45 19.35H41.8113C41.6344 18.4127 40.8123 17.55 39.8241 17.55H38.4741C38.3971 17.55 38.25 17.2647 38.25 17.2733V14.3253C38.25 13.2089 37.3405 12.15 36.2241 12.15H33.0741C31.9576 12.15 31.05 13.2089 31.05 14.3253V19.35H13.95V14.3253C13.95 13.2089 13.0405 12.15 11.9241 12.15H8.7741C7.65765 12.15 6.75 13.2089 6.75 14.3253V17.3012C6.75 17.2926 6.60105 17.55 6.5241 17.55H5.1741C4.1958 17.55 3.37725 18.4262 3.19005 19.35H0V25.65H3.1536C3.17925 26.7449 4.0734 27.45 5.1741 27.45H6.5241C6.60105 27.45 6.75 27.6143 6.75 27.6057V30.9753C6.75 32.0918 7.65765 32.85 8.7741 32.85H11.9241C13.0405 32.85 13.95 32.0918 13.95 30.9753V25.65H31.05V30.9753C31.05 32.0918 31.9576 32.85 33.0741 32.85H36.2241C37.3405 32.85 38.25 32.0918 38.25 30.9753V27.5774C38.25 27.5859 38.3971 27.45 38.4741 27.45H39.8241C40.9153 27.45 41.8014 26.7314 41.8414 25.65H45V19.35ZM1.8 21.15H3.15V23.85H1.8V21.15ZM6.75 25.425C6.75 25.5492 6.6492 25.65 6.525 25.65H5.175C5.0508 25.65 4.95 25.5492 4.95 25.425V19.575C4.95 19.4508 5.0508 19.35 5.175 19.35H6.525C6.6492 19.35 6.75 19.4508 6.75 19.575V25.425ZM12.15 30.9753C12.15 31.0973 12.046 31.05 11.9241 31.05H8.7741C8.65215 31.05 8.55 31.0973 8.55 30.9753V25.6032V19.7532V14.3253C8.55 14.2034 8.65215 13.95 8.7741 13.95H11.9241C12.046 13.95 12.15 14.2034 12.15 14.3253V30.9753ZM13.95 23.85V21.15H31.05V23.85H13.95ZM36.45 30.9753C36.45 31.0973 36.3461 31.05 36.2241 31.05H33.0741C32.9521 31.05 32.85 31.0973 32.85 30.9753V14.3253C32.85 14.2034 32.9521 13.95 33.0741 13.95H36.2241C36.3461 13.95 36.45 14.2034 36.45 14.3253V19.7253V25.5753V30.9753ZM40.05 25.425C40.05 25.5492 39.9492 25.65 39.825 25.65H38.475C38.3508 25.65 38.25 25.5492 38.25 25.425V19.575C38.25 19.4508 38.3508 19.35 38.475 19.35H39.825C39.9492 19.35 40.05 19.4508 40.05 19.575V25.425ZM43.2 23.85H41.85V21.15H43.2V23.85Z" fill="#231F20"/>
</g>
</svg>
